<?xml version="1.0" ?><!DOCTYPE svg  PUBLIC '-//W3C//DTD SVG 1.1//EN'  'http://www.w3.org/Graphics/SVG/1.1/DTD/svg11.dtd'><svg id="Layer_1" style="enable-background:new 0 0 30.6 30.2;" version="1.1" viewBox="0 0 30.6 30.2" xml:space="preserve" xmlns="http://www.w3.org/2000/svg" xmlns:xlink="http://www.w3.org/1999/xlink"><style type="text/css">
	.st0{fill:none;stroke:#414042;stroke-width:1.25;stroke-linecap:round;stroke-linejoin:round;stroke-miterlimit:10;}
	.st1{fill:none;stroke:#414042;stroke-width:1.1713;stroke-linecap:round;stroke-linejoin:round;stroke-miterlimit:10;}
</style><g><circle class="st0" cx="5.1" cy="4.2" r="3.3"/><path class="st0" d="M24.7,29.3c-0.7,0-1.3-0.6-1.3-1.3v-7.7c0-4.3-1.3-5.7-3.2-5.7s-3.9,1.2-3.9,5L16,27.9c0,0.7-0.6,1.3-1.3,1.3   h-2.8c-0.7,0-1.3-0.6-1.3-1.3V11.4c0-0.7,0.6-1.3,1.3-1.3h2.8c0.7,0,1.3,0.6,1.3,1.3v2.2c1.3-4,3.7-4.3,6.1-4.3s6.8,1.3,6.8,6.5   v12.1"/><path class="st0" d="M6.5,29.3H3.7c-0.7,0-1.3-0.6-1.3-1.3V11.4c0-0.7,0.6-1.3,1.3-1.3h2.8c0.7,0,1.3,0.6,1.3,1.3v16.5   C7.8,28.7,7.2,29.3,6.5,29.3z"/></g></svg>