<?xml version="1.0" ?><!DOCTYPE svg  PUBLIC '-//W3C//DTD SVG 1.1//EN'  'http://www.w3.org/Graphics/SVG/1.1/DTD/svg11.dtd'><svg id="Layer_1" style="enable-background:new 0 0 30.2 30.2;" version="1.1" viewBox="0 0 30.2 30.2" xml:space="preserve" xmlns="http://www.w3.org/2000/svg" xmlns:xlink="http://www.w3.org/1999/xlink"><style type="text/css">
	.st0{fill:none;stroke:#414042;stroke-width:1.25;stroke-linecap:round;stroke-linejoin:round;stroke-miterlimit:10;}
	.st1{fill:none;stroke:#414042;stroke-width:1.1713;stroke-linecap:round;stroke-linejoin:round;stroke-miterlimit:10;}
</style><path class="st0" d="M11.7,21.6c0,0-3.8,2.9-7.2,2.5c-3.4-0.4,12.5,5.9,19-3.6c2.5-3.6,2.7-7.3,2.8-8.5c0-0.2,0.1-0.5,0.2-0.7  l1.9-2.7L26,9.3l2.3-3.2l-2.7,1.2c-0.4,0.2-0.9,0.1-1.3-0.1c-1-0.7-3.2-1.9-5.7-0.1c-2,1.4-2.5,2.9-2.7,3.9c-0.1,0.7-0.8,1.2-1.5,1  c-1.9-0.4-5.1-1.3-7.4-3.4C6.3,7.8,4.9,8.2,4.9,9.3c0,1,0.4,2.5,2.1,4.5l-2.1-1c0,0-0.4,3.2,3.8,5.1l-2.1,0.4"/></svg>